<?xml version="1.0" standalone="no"?>
<!DOCTYPE svg PUBLIC "-//W3C//DTD SVG 20010904//EN"
 "http://www.w3.org/TR/2001/REC-SVG-20010904/DTD/svg10.dtd">
<svg version="1.0" xmlns="http://www.w3.org/2000/svg"
 width="928.000000pt" height="928.000000pt" viewBox="0 0 928.000000 928.000000"
 preserveAspectRatio="xMidYMid meet">
<metadata>
Created by potrace 1.11, written by Peter Selinger 2001-2013
</metadata>
<g transform="translate(0.000000,928.000000) scale(0.100000,-0.100000)"
fill="#000000" stroke="none">
<path d="M3835 7882 c-446 -257 -1169 -674 -1608 -927 l-797 -460 2 -1854 3
-1855 770 -443 c424 -244 1141 -658 1594 -920 453 -262 832 -478 841 -480 11
-3 454 247 1106 624 599 346 1320 761 1601 923 l513 295 -3 1858 -2 1858 -435
251 c-239 138 -960 553 -1602 924 -642 371 -1169 674 -1170 674 -2 0 -368
-210 -813 -468z m-600 -1447 c209 -55 374 -222 407 -414 22 -131 -21 -280
-112 -384 -87 -99 -241 -175 -386 -192 -78 -9 -212 10 -288 41 -129 52 -251
171 -297 292 -26 70 -36 198 -20 271 37 175 206 339 397 385 80 19 226 20 299
1z m3625 -815 l0 -380 -355 0 -355 0 -2 -1332 -3 -1333 -575 0 -575 0 -3 1333
-2 1332 -355 0 -355 0 0 380 0 380 1290 0 1290 0 0 -380z m-3248 -1327 c5
-847 3 -819 61 -881 67 -72 212 -86 319 -31 22 11 43 18 46 14 4 -4 19 -158
34 -343 l26 -337 -21 -19 c-31 -27 -171 -90 -242 -109 -214 -58 -488 -64 -666
-17 -254 68 -454 263 -547 535 -57 168 -55 137 -59 1088 l-4 877 524 0 525 0
4 -777z"/>
</g>
</svg>
