<?xml version="1.0" standalone="no"?><!-- Generator: Gravit.io --><svg xmlns="http://www.w3.org/2000/svg" xmlns:xlink="http://www.w3.org/1999/xlink" style="isolation:isolate" viewBox="0 0 32 37" width="32" height="37"><defs><clipPath id="_clipPath_2ujfYQpRbdBLWIwAx3usuTowe5kDPNcb"><rect width="32" height="37"/></clipPath></defs><g clip-path="url(#_clipPath_2ujfYQpRbdBLWIwAx3usuTowe5kDPNcb)"><g><path d=" M 3.176 25.883 L 3.176 18.479 L 3.176 11.074 L 16.001 3.636 L 28.826 11.074 L 28.826 18.479 L 28.826 25.883 L 16.001 33.749 L 3.176 25.883 Z " fill="rgb(142,68,173)"/><path d=" M 3.176 25.883 L 3.176 18.479 L 3.176 11.074 L 16.001 3.636 L 28.826 11.074 L 28.826 18.479 L 28.826 25.883 L 16.001 20.143 L 3.176 25.883 Z " fill="rgb(88,45,121)"/><path d=" M 0 27.715 L 0 18.479 L 0 9.242 L 8.002 4.618 L 16.003 0 L 23.998 4.618 L 32 9.242 L 32 18.479 L 32 27.715 L 23.998 32.339 L 16.003 36.957 L 8.002 32.339 L 0 27.715 Z  M 3.198 25.872 L 3.198 18.479 L 3.198 11.085 L 9.601 7.394 L 16.003 3.697 L 22.399 7.394 L 28.802 11.085 L 28.802 18.479 L 28.802 25.872 L 22.399 29.563 L 16.003 33.26 L 9.601 29.563 L 3.198 25.872 Z " fill-rule="evenodd" fill="rgb(116,62,157)"/><path d=" M 11.074 26.866 L 11.074 26.866 Q 9.47 26.866 8.572 25.834 L 8.572 25.834 L 8.572 25.834 Q 7.674 24.803 7.674 23.026 L 7.674 23.026 L 7.674 17.143 L 11.724 17.143 L 11.724 22.854 L 11.724 22.854 Q 11.724 23.294 11.962 23.532 L 11.962 23.532 L 11.962 23.532 Q 12.201 23.771 12.583 23.771 L 12.583 23.771 L 12.583 23.771 Q 12.965 23.771 13.366 23.542 L 13.366 23.542 L 13.577 26.197 L 13.577 26.197 Q 13.156 26.522 12.478 26.694 L 12.478 26.694 L 12.478 26.694 Q 11.8 26.866 11.074 26.866 L 11.074 26.866 L 11.074 26.866 Z  M 9.699 15.711 L 9.699 15.711 Q 8.801 15.711 8.18 15.147 L 8.18 15.147 L 8.18 15.147 Q 7.56 14.584 7.56 13.762 L 7.56 13.762 L 7.56 13.762 Q 7.56 12.941 8.209 12.387 L 8.209 12.387 L 8.209 12.387 Q 8.859 11.833 9.699 11.833 L 9.699 11.833 L 9.699 11.833 Q 10.578 11.833 11.217 12.406 L 11.217 12.406 L 11.217 12.406 Q 11.857 12.979 11.857 13.762 L 11.857 13.762 L 11.857 13.762 Q 11.857 14.603 11.208 15.157 L 11.208 15.157 L 11.208 15.157 Q 10.559 15.711 9.699 15.711 L 9.699 15.711 L 9.699 15.711 Z  M 17.015 26.713 L 17.015 16.475 L 14.283 16.475 L 14.283 13.571 L 24.197 13.571 L 24.197 16.475 L 21.466 16.475 L 21.466 26.713 L 17.015 26.713 L 17.015 26.713 Z " fill-rule="evenodd" fill="rgb(255,255,255)"/></g></g></svg>