<?xml version="1.0" standalone="no"?><!-- Generator: Gravit.io --><svg xmlns="http://www.w3.org/2000/svg" xmlns:xlink="http://www.w3.org/1999/xlink" style="isolation:isolate" viewBox="0 0 50 57.8" width="50" height="57.8"><path d=" M 4.966 40.466 L 4.966 28.89 L 4.966 17.314 L 25.017 5.684 L 45.067 17.314 L 45.067 28.89 L 45.067 40.466 L 25.017 52.765 L 4.966 40.466 Z " fill="rgb(142,68,173)"/><path d=" M 4.966 40.466 L 4.966 28.89 L 4.966 17.314 L 25.017 5.684 L 45.067 17.314 L 45.067 28.89 L 45.067 40.466 L 25.017 31.492 L 4.966 40.466 Z " fill="rgb(88,45,121)"/><path d=" M 0 43.33 L 0 28.89 L 0 14.45 L 12.51 7.22 L 25.02 0 L 37.52 7.22 L 50.03 14.45 L 50.03 28.89 L 50.03 43.33 L 37.52 50.56 L 25.02 57.78 L 12.51 50.56 L 0 43.33 Z  M 5 40.45 L 5 28.89 L 5 17.33 L 15.01 11.56 L 25.02 5.78 L 35.02 11.56 L 45.03 17.33 L 45.03 28.89 L 45.03 40.45 L 35.02 46.22 L 25.02 52 L 15.01 46.22 L 5 40.45 Z " fill-rule="evenodd" fill="rgb(255,255,255)"/><path d=" M 17.523 42.003 L 17.523 42.003 Q 14.919 42.003 13.462 40.329 L 13.462 40.329 L 13.462 40.329 Q 12.005 38.655 12.005 35.772 L 12.005 35.772 L 12.005 26.224 L 18.577 26.224 L 18.577 35.493 L 18.577 35.493 Q 18.577 36.206 18.964 36.593 L 18.964 36.593 L 18.964 36.593 Q 19.352 36.981 19.972 36.981 L 19.972 36.981 L 19.972 36.981 Q 20.592 36.981 21.243 36.609 L 21.243 36.609 L 21.584 40.918 L 21.584 40.918 Q 20.902 41.445 19.801 41.724 L 19.801 41.724 L 19.801 41.724 Q 18.701 42.003 17.523 42.003 L 17.523 42.003 L 17.523 42.003 Z  M 15.291 23.899 L 15.291 23.899 Q 13.834 23.899 12.826 22.984 L 12.826 22.984 L 12.826 22.984 Q 11.819 22.07 11.819 20.737 L 11.819 20.737 L 11.819 20.737 Q 11.819 19.404 12.873 18.505 L 12.873 18.505 L 12.873 18.505 Q 13.927 17.606 15.291 17.606 L 15.291 17.606 L 15.291 17.606 Q 16.717 17.606 17.755 18.536 L 17.755 18.536 L 17.755 18.536 Q 18.794 19.466 18.794 20.737 L 18.794 20.737 L 18.794 20.737 Q 18.794 22.101 17.74 23 L 17.74 23 L 17.74 23 Q 16.686 23.899 15.291 23.899 L 15.291 23.899 L 15.291 23.899 Z  M 27.164 41.755 L 27.164 25.139 L 22.731 25.139 L 22.731 20.427 L 38.82 20.427 L 38.82 25.139 L 34.387 25.139 L 34.387 41.755 L 27.164 41.755 L 27.164 41.755 Z " fill-rule="evenodd" fill="rgb(255,255,255)"/></svg>