<?xml version="1.0" standalone="no"?><!-- Generator: Gravit.io --><svg xmlns="http://www.w3.org/2000/svg" xmlns:xlink="http://www.w3.org/1999/xlink" style="isolation:isolate" viewBox="0 0 50 57.8" width="50" height="57.8"><defs><clipPath id="_clipPath_DAr3fLsNFQn4dVquWvI4THwd8OKEiSFG"><rect width="50" height="57.8"/></clipPath></defs><g clip-path="url(#_clipPath_DAr3fLsNFQn4dVquWvI4THwd8OKEiSFG)"><path d=" M 0 43.33 L 0 28.89 L 0 14.44 L 12.51 7.22 L 25.02 0 L 37.53 7.22 L 50.04 14.44 L 50.04 28.89 L 50.04 43.33 L 37.53 50.55 L 25.02 57.77 L 12.51 50.55 L 0 43.33 L 0 43.33 Z  M 5 40.44 L 5 28.89 L 5 17.33 L 15.01 11.55 L 25.02 5.77 L 35.03 11.55 L 45.04 17.33 L 45.04 28.89 L 45.04 40.44 L 35.03 46.22 L 25.02 52 L 15.01 46.22 L 5 40.44 L 5 40.44 Z " fill-rule="evenodd" fill="rgb(0,0,0)"/><path d=" M 17.526 42 L 17.526 42 Q 14.922 42 13.465 40.326 L 13.465 40.326 L 13.465 40.326 Q 12.008 38.652 12.008 35.769 L 12.008 35.769 L 12.008 26.221 L 18.58 26.221 L 18.58 35.49 L 18.58 35.49 Q 18.58 36.203 18.967 36.59 L 18.967 36.59 L 18.967 36.59 Q 19.355 36.978 19.975 36.978 L 19.975 36.978 L 19.975 36.978 Q 20.595 36.978 21.246 36.606 L 21.246 36.606 L 21.587 40.915 L 21.587 40.915 Q 20.905 41.442 19.804 41.721 L 19.804 41.721 L 19.804 41.721 Q 18.704 42 17.526 42 L 17.526 42 L 17.526 42 Z  M 15.294 23.896 L 15.294 23.896 Q 13.837 23.896 12.829 22.981 L 12.829 22.981 L 12.829 22.981 Q 11.822 22.067 11.822 20.734 L 11.822 20.734 L 11.822 20.734 Q 11.822 19.401 12.876 18.502 L 12.876 18.502 L 12.876 18.502 Q 13.93 17.603 15.294 17.603 L 15.294 17.603 L 15.294 17.603 Q 16.72 17.603 17.758 18.533 L 17.758 18.533 L 17.758 18.533 Q 18.797 19.463 18.797 20.734 L 18.797 20.734 L 18.797 20.734 Q 18.797 22.098 17.743 22.997 L 17.743 22.997 L 17.743 22.997 Q 16.689 23.896 15.294 23.896 L 15.294 23.896 L 15.294 23.896 Z  M 27.167 41.752 L 27.167 25.136 L 22.734 25.136 L 22.734 20.424 L 38.823 20.424 L 38.823 25.136 L 34.39 25.136 L 34.39 41.752 L 27.167 41.752 L 27.167 41.752 Z " fill-rule="evenodd" fill="rgb(0,0,0)"/></g></svg>